<svg xmlns="http://www.w3.org/2000/svg" viewBox="0 0 200 200" width="200" height="200">
  <!-- Dev2 Agent - Energetic, purple theme, lightning bolt -->
  <defs>
    <linearGradient id="bg" x1="0%" y1="0%" x2="100%" y2="100%">
      <stop offset="0%" style="stop-color:#9C27B0;stop-opacity:0.2"/>
      <stop offset="100%" style="stop-color:#6A1B9A;stop-opacity:0.3"/>
    </linearGradient>
  </defs>
  <circle cx="100" cy="100" r="98" fill="url(#bg)" stroke="#9C27B0" stroke-width="3"/>
  <!-- Head -->
  <circle cx="100" cy="108" r="46" fill="#F5D6B8"/>
  <!-- Hair - spiky energetic -->
  <path d="M58 100 Q56 55 100 48 Q144 55 142 100" fill="#1A1A2E"/>
  <path d="M65 72 L58 50 L78 68" fill="#1A1A2E"/>
  <path d="M85 60 L80 35 L98 55" fill="#1A1A2E"/>
  <path d="M108 55 L112 32 L120 55" fill="#1A1A2E"/>
  <path d="M130 65 L140 45 L138 72" fill="#1A1A2E"/>
  <!-- Eyes - wide, energetic -->
  <ellipse cx="82" cy="106" rx="9" ry="10" fill="white"/>
  <ellipse cx="118" cy="106" rx="9" ry="10" fill="white"/>
  <circle cx="84" cy="105" r="6" fill="#6A1B9A"/>
  <circle cx="120" cy="105" r="6" fill="#6A1B9A"/>
  <circle cx="86" cy="103" r="2.5" fill="white"/>
  <circle cx="122" cy="103" r="2.5" fill="white"/>
  <!-- Excited eyebrows -->
  <path d="M70 90 Q80 82 93 88" stroke="#1A1A2E" stroke-width="2.5" fill="none" stroke-linecap="round"/>
  <path d="M107 88 Q120 82 130 90" stroke="#1A1A2E" stroke-width="2.5" fill="none" stroke-linecap="round"/>
  <!-- Grin -->
  <path d="M78 126 Q100 146 122 126" stroke="#C62828" stroke-width="3" fill="none" stroke-linecap="round"/>
  <!-- T-shirt -->
  <path d="M58 168 Q58 148 82 140 L100 155 L118 140 Q142 148 142 168 L142 200 L58 200 Z" fill="#9C27B0"/>
  <!-- Lightning bolt on shirt -->
  <polygon points="105,158 95,175 104,175 94,195 110,172 101,172 110,158" fill="#FFD700"/>
</svg>
