<svg xmlns="http://www.w3.org/2000/svg" viewBox="0 0 200 200" width="200" height="200">
  <!-- PO Agent - Visionary, target-focused, orange theme -->
  <defs>
    <linearGradient id="bg" x1="0%" y1="0%" x2="100%" y2="100%">
      <stop offset="0%" style="stop-color:#FF9800;stop-opacity:0.2"/>
      <stop offset="100%" style="stop-color:#E65100;stop-opacity:0.3"/>
    </linearGradient>
  </defs>
  <circle cx="100" cy="100" r="98" fill="url(#bg)" stroke="#FF9800" stroke-width="3"/>
  <!-- Head -->
  <circle cx="100" cy="108" r="48" fill="#E8C4A0"/>
  <!-- Hair - styled -->
  <path d="M55 95 Q52 52 100 48 Q148 52 145 95 L140 82 Q135 60 100 55 Q65 60 60 82 Z" fill="#8D6E63"/>
  <path d="M60 82 Q58 72 68 68" stroke="#6D4C41" stroke-width="4" fill="none"/>
  <!-- Eyes - bright, visionary -->
  <ellipse cx="82" cy="106" rx="9" ry="10" fill="white"/>
  <ellipse cx="118" cy="106" rx="9" ry="10" fill="white"/>
  <circle cx="84" cy="106" r="6" fill="#E65100"/>
  <circle cx="120" cy="106" r="6" fill="#E65100"/>
  <circle cx="86" cy="104" r="2.5" fill="white"/>
  <circle cx="122" cy="104" r="2.5" fill="white"/>
  <!-- Enthusiastic eyebrows -->
  <path d="M70 92 Q80 85 94 90" stroke="#5D4037" stroke-width="2.5" fill="none" stroke-linecap="round"/>
  <path d="M106 90 Q120 85 130 92" stroke="#5D4037" stroke-width="2.5" fill="none" stroke-linecap="round"/>
  <!-- Big smile -->
  <path d="M78 126 Q100 148 122 126" stroke="#C62828" stroke-width="3" fill="#E57373" fill-opacity="0.3" stroke-linecap="round"/>
  <!-- Shirt -->
  <path d="M55 165 Q55 148 80 142 L100 158 L120 142 Q145 148 145 165 L145 200 L55 200 Z" fill="#FF9800"/>
  <!-- Target badge -->
  <circle cx="85" cy="172" r="10" fill="white" fill-opacity="0.3"/>
  <circle cx="85" cy="172" r="6" fill="white" fill-opacity="0.4"/>
  <circle cx="85" cy="172" r="2" fill="#E65100"/>
</svg>
